REM DIRINDEX 1\2\4,1\2\5,1\2\6,1\3\7,1\3\8,1\3\9,1\3\10
REM DIRNAME folder01,folder02,folder03,folder04,folder05,folder06,folder07,folder08,folder09,folder10
TITLE ""
FILE "a_228.mp3" MP3
  TRACK 01 AUDIO
    TITLE "0:"
    INDEX 01 00:00:00
  TRACK 02 AUDIO
    TITLE "4:cjc057_04512"
    INDEX 01 00:00:15
  TRACK 03 AUDIO
    TITLE "0:"
    INDEX 01 00:01:56
  TRACK 04 AUDIO
    TITLE "5:cjc057_04513"
    INDEX 01 00:02:10
  TRACK 05 AUDIO
    TITLE "0:"
    INDEX 01 00:04:62
  TRACK 06 AUDIO
    TITLE "4:cjc057_04514"
    INDEX 01 00:05:65
  TRACK 07 AUDIO
    TITLE "0:"
    INDEX 01 00:07:29
  TRACK 08 AUDIO
    TITLE "5:cjc057_04515"
    INDEX 01 00:07:56
  TRACK 09 AUDIO
    TITLE "0:"
    INDEX 01 00:10:12
  TRACK 10 AUDIO
    TITLE "4:cjc057_04516"
    INDEX 01 00:11:15
  TRACK 11 AUDIO
    TITLE "0:"
    INDEX 01 00:12:56
  TRACK 12 AUDIO
    TITLE "5:cjc057_04517"
    INDEX 01 00:13:10
  TRACK 13 AUDIO
    TITLE "0:"
    INDEX 01 00:15:66
  TRACK 14 AUDIO
    TITLE "4:cjc057_04518"
    INDEX 01 00:16:67
  TRACK 15 AUDIO
    TITLE "0:"
    INDEX 01 00:18:17
  TRACK 16 AUDIO
    TITLE "5:cjc057_04519"
    INDEX 01 00:18:48
  TRACK 17 AUDIO
    TITLE "0:"
    INDEX 01 00:20:30
  TRACK 18 AUDIO
    TITLE "4:cjc057_04520"
    INDEX 01 00:21:35
  TRACK 19 AUDIO
    TITLE "0:"
    INDEX 01 00:22:66
  TRACK 20 AUDIO
    TITLE "5:cjc057_04521"
    INDEX 01 00:23:20
  TRACK 21 AUDIO
    TITLE "0:"
    INDEX 01 00:26:11
  TRACK 22 AUDIO
    TITLE "4:cjc057_04522"
    INDEX 01 00:27:14
  TRACK 23 AUDIO
    TITLE "0:"
    INDEX 01 00:28:62
  TRACK 24 AUDIO
    TITLE "5:cjc057_04523"
    INDEX 01 00:29:15
  TRACK 25 AUDIO
    TITLE "0:"
    INDEX 01 00:31:27
  TRACK 26 AUDIO
    TITLE "4:cjc057_04524"
    INDEX 01 00:32:31
  TRACK 27 AUDIO
    TITLE "0:"
    INDEX 01 00:33:71
  TRACK 28 AUDIO
    TITLE "5:cjc057_04525"
    INDEX 01 00:34:24
  TRACK 29 AUDIO
    TITLE "0:"
    INDEX 01 00:37:32
  TRACK 30 AUDIO
    TITLE "4:cjc057_04526"
    INDEX 01 00:38:35
  TRACK 31 AUDIO
    TITLE "0:"
    INDEX 01 00:39:74
  TRACK 32 AUDIO
    TITLE "5:cjc057_04527"
    INDEX 01 00:40:28
  TRACK 33 AUDIO
    TITLE "0:"
    INDEX 01 00:42:02
  TRACK 34 AUDIO
    TITLE "4:cjc057_04528"
    INDEX 01 00:43:07
  TRACK 35 AUDIO
    TITLE "0:"
    INDEX 01 00:44:18
  TRACK 36 AUDIO
    TITLE "5:cjc057_04529"
    INDEX 01 00:44:48
  TRACK 37 AUDIO
    TITLE "0:"
    INDEX 01 00:46:74
  TRACK 38 AUDIO
    TITLE "4:cjc057_04530"
    INDEX 01 00:48:06
  TRACK 39 AUDIO
    TITLE "0:"
    INDEX 01 00:49:35
  TRACK 40 AUDIO
    TITLE "5:cjc057_04531"
    INDEX 01 00:49:65
  TRACK 41 AUDIO
    TITLE "0:"
    INDEX 01 00:51:26
  TRACK 42 AUDIO
    TITLE "4:cjc057_04532"
    INDEX 01 00:52:32
  TRACK 43 AUDIO
    TITLE "0:"
    INDEX 01 00:53:41
  TRACK 44 AUDIO
    TITLE "5:cjc057_04533"
    INDEX 01 00:53:72
  TRACK 45 AUDIO
    TITLE "0:"
    INDEX 01 00:56:29
  TRACK 46 AUDIO
    TITLE "4:cjc057_04534"
    INDEX 01 00:57:35
  TRACK 47 AUDIO
    TITLE "0:"
    INDEX 01 00:58:67
  TRACK 48 AUDIO
    TITLE "5:cjc057_04535"
    INDEX 01 00:59:22
  TRACK 49 AUDIO
    TITLE "0:"
    INDEX 01 01:01:54
  TRACK 50 AUDIO
    TITLE "4:cjc057_04536"
    INDEX 01 01:02:59
  TRACK 51 AUDIO
    TITLE "0:"
    INDEX 01 01:04:15
  TRACK 52 AUDIO
    TITLE "5:cjc057_04537"
    INDEX 01 01:04:45
  TRACK 53 AUDIO
    TITLE "0:"
    INDEX 01 01:05:60
  TRACK 54 AUDIO
    TITLE "4:cjc057_04538"
    INDEX 01 01:06:63
  TRACK 55 AUDIO
    TITLE "0:"
    INDEX 01 01:08:21
  TRACK 56 AUDIO
    TITLE "5:cjc057_04539"
    INDEX 01 01:08:50
  TRACK 57 AUDIO
    TITLE "0:"
    INDEX 01 01:11:41
  TRACK 58 AUDIO
    TITLE "4:cjc057_04540"
    INDEX 01 01:12:44
  TRACK 59 AUDIO
    TITLE "0:"
    INDEX 01 01:14:08
  TRACK 60 AUDIO
    TITLE "5:cjc057_04541"
    INDEX 01 01:14:39
  TRACK 61 AUDIO
    TITLE "0:"
    INDEX 01 01:16:36
  TRACK 62 AUDIO
    TITLE "4:cjc057_04542"
    INDEX 01 01:17:39
  TRACK 63 AUDIO
    TITLE "0:"
    INDEX 01 01:19:05
  TRACK 64 AUDIO
    TITLE "5:cjc057_04543"
    INDEX 01 01:19:34
  TRACK 65 AUDIO
    TITLE "0:"
    INDEX 01 01:21:35
  TRACK 66 AUDIO
    TITLE "4:cjc057_04544"
    INDEX 01 01:22:39
  TRACK 67 AUDIO
    TITLE "0:"
    INDEX 01 01:23:71
  TRACK 68 AUDIO
    TITLE "5:cjc057_04545"
    INDEX 01 01:24:28
  TRACK 69 AUDIO
    TITLE "0:"
    INDEX 01 01:25:72
  TRACK 70 AUDIO
    TITLE "4:cjc057_04546"
    INDEX 01 01:27:01
  TRACK 71 AUDIO
    TITLE "0:"
    INDEX 01 01:28:39
  TRACK 72 AUDIO
    TITLE "5:cjc057_04547"
    INDEX 01 01:28:67
  TRACK 73 AUDIO
    TITLE "0:"
    INDEX 01 01:30:05
  TRACK 74 AUDIO
    TITLE "4:cjc057_04548"
    INDEX 01 01:31:12
  TRACK 75 AUDIO
    TITLE "0:"
    INDEX 01 01:32:33
  TRACK 76 AUDIO
    TITLE "5:cjc057_04549"
    INDEX 01 01:32:62
  TRACK 77 AUDIO
    TITLE "0:"
    INDEX 01 01:34:63
  TRACK 78 AUDIO
    TITLE "4:cjc057_04550"
    INDEX 01 01:35:65
  TRACK 79 AUDIO
    TITLE "0:"
    INDEX 01 01:37:11
  TRACK 80 AUDIO
    TITLE "5:cjc057_04551"
    INDEX 01 01:37:42
  TRACK 81 AUDIO
    TITLE "0:"
    INDEX 01 01:39:02
  TRACK 82 AUDIO
    TITLE "4:cjc057_04552"
    INDEX 01 01:40:07
  TRACK 83 AUDIO
    TITLE "0:"
    INDEX 01 01:41:32
  TRACK 84 AUDIO
    TITLE "5:cjc057_04553"
    INDEX 01 01:41:59
  TRACK 85 AUDIO
    TITLE "0:"
    INDEX 01 01:45:26
